# xmcd
#
# Track frame offsets:
#	150
#	15768
#	29458
#	42655
#	56055
#	71185
#	84100
#	97485
#	109705
#	124020
#	138288
#	150240
#	163570
#	177578
#	190715
#	204270
#	218185
#	230520
#	243015
#	255123
#
# Disc length: 3575
#
# Revision: 1
# Processed by: cddbd v1.5.1PL0 Copyright (c) Steve Scherf et al.
# Submitted via: dBpowerAMP V4.0
# Normalized: r0:TDELIM( - )
#
DISCID=040df514
DTITLE=Various Artist - The Birth Of The Blues
DYEAR=1900
DGENRE=Blues
TTITLE0=Bessie Smith - Down Hearted Blues
TTITLE1=Blind Lemon Jefferson - Match Box Blues
TTITLE2=Sylvester Weaver and Walter Beasley - Bottleneck Blues
TTITLE3=Blind Willie Johnson - God Don't Never Change
TTITLE4=Blind Willie Johnson - Dark Was The Night
TTITLE5=Bo Carter - Pigmeat Is What I Crave
TTITLE6=Tampa Red and Geoggia Tom - You Can't Get That Stuff No More
TTITLE7=Charlie Patton - Revenue Man
TTITLE8=Charlie Patton - High Sheriff Blues
TTITLE9=Blind Boy Fuller - Homesick And Lonesome Blues
TTITLE10=Leroy Carr - Stormy Night Blues
TTITLE11=Leadbelly - Packin' Trunk Blues
TTITLE12=Leadbelly - Fort Worth And Dallas Blues
TTITLE13=Peetie Wheatstraw - Sweet Home Blues
TTITLE14=Robert Johnson - I Believe I'll Dust My Broom
TTITLE15=Robert Johnson - Terraplane Blues
TTITLE16=Big Bill Broonzy - Spreadin' Snakes Blues
TTITLE17=Memphis Minnie - Nothing In Ramblin'
TTITLE18=Bukka White - Bukka's Jitterbug Swing
TTITLE19=Bukka White - Special Stream Line
EXTD=
EXTT0=
EXTT1=
EXTT2=
EXTT3=
EXTT4=
EXTT5=
EXTT6=
EXTT7=
EXTT8=
EXTT9=
EXTT10=
EXTT11=
EXTT12=
EXTT13=
EXTT14=
EXTT15=
EXTT16=
EXTT17=
EXTT18=
EXTT19=
PLAYORDER=
